#!OML:ASF E:\inclinewalkrobotboard\Project 1\Capture day 1\Session 1\subject1.ASF
:FULLY-SPECIFIED
:DEGREES
130
root 9.06482 16.2169 20.2782 -165.357 8.12733 -176.778
lowerback -5.77112 -0.596059 -5.21198
upperback 0.603625 -0.500045 2.27404
thorax 3.93828 -0.381113 5.26252
lowerneck -7.61868 0.271226 -2.54175
upperneck 26.6251 2.22819 2.2401
head 9.59325 1.725 1.56307
rclavicle 1.08835e-014 -2.26615e-014
rhumerus -46.1645 -15.7571 -68.9613
rradius 38.2872
rwrist 10.7034
rhand -14.796 -34.9808
rfingers 7.12502
rthumb 11.3615 -64.653
lclavicle 1.08835e-014 -2.26615e-014
lhumerus -19.4794 -23.0781 84.34
lradius 40.2765
lwrist -12.1854
lhand -33.0111 -25.2775
lfingers 7.12502
lthumb -6.22493 4.61105
rfemur -20.2659 1.20726 24.3763
rtibia 37.3821
rfoot -20.9918 -3.2441
rtoes -28.9323
lfemur -20.9544 -5.17184 -18.4826
ltibia 45.043
lfoot -21.268 0.360014
ltoes -62.8869
131
root 9.11802 16.167 20.1601 -165.62 8.48844 -176.44
lowerback -5.27526 -0.413832 -4.91304
upperback 0.755941 -0.300469 2.35879
thorax 3.78916 -0.274898 5.19863
lowerneck -7.76833 0.441842 -2.61869
upperneck 26.4746 2.55078 1.85826
head 9.56595 1.8141 1.4736
rclavicle -2.77802e-014 -1.59028e-014
rhumerus -45.2308 -14.8566 -69.5769
rradius 38.9149
rwrist 10.288
rhand -15.0219 -34.9673
rfingers 7.12502
rthumb 11.1436 -64.6514
lclavicle -2.77802e-014 -1.59028e-014
lhumerus -19.0791 -22.6073 82.9051
lradius 40.0307
lwrist -12.3747
lhand -33.1217 -25.353
lfingers 7.12502
lthumb -6.33169 4.53238
rfemur -19.4138 1.32127 25.0221
rtibia 37.454
rfoot -21.5589 -3.5984
rtoes -28.5179
lfemur -24.3292 -4.04078 -17.91
ltibia 51.9805
lfoot -17.5902 -0.277572
ltoes -63.3285
132
root 9.16347 16.1055 20.0484 -165.866 8.86358 -176.082
lowerback -4.68285 -0.158289 -4.50669
upperback 0.926163 -0.00718337 2.41771
thorax 3.59323 -0.117634 5.05056
lowerneck -7.81488 0.575202 -2.72961
upperneck 26.059 2.75464 1.59471
head 9.42561 1.84974 1.41026
rclavicle -1.01877e-014 7.55382e-015
rhumerus -44.2376 -13.735 -70.3737
rradius 39.7593
rwrist 9.58787
rhand -15.0636 -35.1503
rfingers 7.12502
rthumb 11.1034 -64.8366
lclavicle -1.01877e-014 7.55382e-015
lhumerus -18.6687 -22.2599 81.4302
lradius 39.7834
lwrist -12.3387
lhand -33.7278 -26.0155
lfingers 7.12502
lthumb -6.91683 3.8515
rfemur -18.6767 1.36732 25.5919
rtibia 37.7011
rfoot -22.1234 -3.36877
rtoes -26.9019
lfemur -27.8962 -2.96721 -17.3151
ltibia 58.6589
lfoot -13.1347 -0.694191
ltoes -62.9431
133
root 9.19995 16.028 19.9388 -166.119 9.27027 -175.688
lowerback -4.04384 0.117935 -3.96787
upperback 1.12534 0.313404 2.45011
thorax 3.40144 0.0565252 4.79656
lowerneck -7.50005 0.642983 -3.00649
upperneck 25.3205 2.8137 1.49511
head 9.10295 1.81899 1.40401
rclavicle 2.17918e-014 -4.96962e-015
rhumerus -43.1401 -12.3581 -71.3569
rradius 40.7404
rwrist 8.96705
rhand -15.131 -36.1161
rfingers 7.12502
rthumb 11.0384 -65.8058
lclavicle 2.17918e-014 -4.96962e-015
lhumerus -18.3825 -21.9218 79.9342
lradius 39.6285
lwrist -12.0416
lhand -33.7331 -25.8718
lfingers 7.12502
lthumb -6.92197 3.99504
rfemur -18.0506 1.2778 26.1028
rtibia 38.1604
rfoot -22.812 -2.83978
rtoes -25.8356
lfemur -31.2767 -1.92676 -16.6887
ltibia 64.3619
lfoot -12.2045 -0.696479
ltoes -63.6487
134
root 9.23085 15.9389 19.8249 -166.529 9.83474 -175.261
lowerback -3.19864 0.427915 -3.42444
upperback 1.35593 0.683855 2.49518
thorax 3.12588 0.258487 4.5487
lowerneck -7.28638 0.832138 -3.0686
upperneck 24.6875 3.06678 1.2182
head 8.84125 1.88574 1.32459
rclavicle 4.72114e-016 7.05686e-015
rhumerus -41.8493 -10.7295 -72.3869
rradius 41.6085
rwrist 8.5498
rhand -14.8298 -37.4276
rfingers 7.12502
rthumb 11.3289 -67.1016
lclavicle 4.72114e-016 7.05686e-015
lhumerus -18.3169 -21.5249 78.5285
lradius 39.5231
lwrist -11.5482
lhand -33.7686 -25.2271
lfingers 7.12502
lthumb -6.95623 4.6386
rfemur -17.2691 1.20981 26.551
rtibia 38.6923
rfoot -23.5923 -2.34885
rtoes -25.7556
lfemur -34.1038 -0.713107 -16.0042
ltibia 68.6886
lfoot -12.6232 0.214226
ltoes -61.7662
135
root 9.25635 15.8496 19.7067 -166.993 10.5956 -174.762
lowerback -2.25236 0.828214 -2.83969
upperback 1.61805 1.18571 2.51463
thorax 2.82077 0.528707 4.24768
lowerneck -7.28663 0.925716 -3.0035
upperneck 24.3666 3.19713 0.971823
head 8.73352 1.91636 1.23418
rclavicle -1.73937e-014 9.24349e-015
rhumerus -40.1931 -9.32 -73.3941
rradius 42.2144
rwrist 8.34118
rhand -14.2801 -37.1706
rfingers 7.12502
rthumb 11.859 -66.8148
lclavicle -1.73937e-014 9.24349e-015
lhumerus -18.3592 -21.1274 77.1592
lradius 39.3992
lwrist -10.9467
lhand -34.1628 -25.0076
lfingers 7.12502
lthumb -7.33672 4.84523
rfemur -16.4137 1.26669 27.0061
rtibia 39.2743
rfoot -24.2802 -1.8264
rtoes -25.6728
lfemur -36.6066 1.09162 -15.4103
ltibia 72.2649
lfoot -14.3227 2.2637
ltoes -59.9323
136
root 9.27847 15.7744 19.5866 -167.394 11.4969 -174.393
lowerback -1.32249 1.27612 -2.45222
upperback 1.90161 1.76988 2.47604
thorax 2.54631 0.835943 3.99056
lowerneck -7.47576 1.00332 -2.81452
upperneck 24.1919 3.29989 0.722175
head 8.71415 1.94391 1.12579
rclavicle 2.10215e-014 6.65929e-015
rhumerus -38.1162 -7.55498 -74.8328
rradius 42.3836
rwrist 5.65736
rhand -18.333 -34.1698
rfingers 7.12502
rthumb 7.94897 -64.0003
lclavicle 2.10215e-014 6.65929e-015
lhumerus -18.4546 -20.5298 75.7899
lradius 39.239
lwrist -10.4486
lhand -34.3329 -25.1865
lfingers 7.12502
lthumb -7.50088 4.6605
rfemur -15.7443 1.34776 27.2715
rtibia 40.0263
rfoot -24.7486 -1.2281
rtoes -25.2874
lfemur -38.9814 2.5043 -14.6229
ltibia 73.4937
lfoot -15.4489 3.28637
ltoes -58.4774
137
root 9.29676 15.7203 19.4633 -167.721 12.417 -174.301
lowerback -0.501793 1.64621 -2.45137
upperback 2.23839 2.2664 2.42743
thorax 2.39083 1.08945 3.93252
lowerneck -7.72751 1.20434 -2.63395
upperneck 23.8109 3.55143 0.4098
head 8.63483 2.02365 1.00779
rclavicle 7.7526e-015 1.2424e-014
rhumerus -35.5952 -6.06554 -75.7762
rradius 43.1481
rwrist 6.84997
rhand -16.3782 -36.9467
rfingers 7.12502
rthumb 9.83529 -66.6969
lclavicle 7.7526e-015 1.2424e-014
lhumerus -18.7139 -19.8448 74.3956
lradius 39.0163
lwrist -9.86477
lhand -34.5049 -25.1676
lfingers 7.12502
lthumb -7.66695 4.67342
rfemur -15.2585 1.37959 27.1724
rtibia 40.8254
rfoot -24.9663 -0.673535
rtoes -25.1398
lfemur -41.4094 3.69773 -14.1695
ltibia 74.2504
lfoot -15.5697 6.64277
ltoes -62.0846
138
root 9.30905 15.6876 19.3374 -167.802 13.2285 -174.293
lowerback 0.0889684 1.92351 -2.58097
upperback 2.57404 2.64513 2.38896
thorax 2.36916 1.27924 3.95776
lowerneck -7.53707 1.37909 -3.00674
upperneck 22.855 3.65767 0.597652
head 8.26151 2.03073 1.11664
rclavicle -2.48481e-016 -1.33186e-014
rhumerus -32.8664 -4.12567 -76.7853
rradius 44.025
rwrist 7.01533
rhand -15.9221 -37.5884
rfingers 7.12502
rthumb 10.2753 -67.3174
lclavicle -2.48481e-016 -1.33186e-014
lhumerus -19.224 -19.6126 72.8897
lradius 38.7777
lwrist -8.8725
lhand -34.8996 -25.1139
lfingers 7.12502
lthumb -8.04787 4.71291
rfemur -14.9838 1.27903 26.9061
rtibia 41.4375
rfoot -24.8484 -0.0674043
rtoes -25.101
lfemur -43.8641 4.21112 -13.4304
ltibia 73.5178
lfoot -17.373 5.43858
ltoes -57.7512
139
root 9.31602 15.6767 19.2083 -167.651 14.0143 -174.289
lowerback 0.586938 2.20918 -2.72628
upperback 2.8396 3.03394 2.29351
thorax 2.32794 1.47439 3.93015
lowerneck -7.48126 1.49669 -3.14454
upperneck 22.0083 3.70344 0.606286
head 7.96256 2.01378 1.12521
rclavicle 4.47266e-016 4.96962e-016
rhumerus -30.2666 -1.90562 -77.837
rradius 45.2789
rwrist 6.28231
rhand -16.2294 -36.1274
rfingers 7.12502
rthumb 9.97883 -65.8709
lclavicle 4.47266e-016 4.96962e-016
lhumerus -19.9596 -20.1395 71.1995
lradius 38.6326
lwrist -7.63513
lhand -34.9915 -25.5739
lfingers 7.12502
lthumb -8.13661 4.24945
rfemur -14.8561 1.05173 26.5451
rtibia 41.7468
rfoot -24.3563 0.708609
rtoes -25.0675
lfemur -46.1925 4.50215 -12.6046
ltibia 71.8368
lfoot -19.0145 4.71866
ltoes -55.9769
140
root 9.31795 15.6866 19.0648 -167.467 14.8275 -174.3
lowerback 1.18688 2.55303 -2.84853
upperback 3.00485 3.49379 2.1049
thorax 2.1263 1.70965 3.77966
lowerneck -7.45731 1.54286 -3.11501
upperneck 21.3414 3.65416 0.619208
head 7.73631 1.97209 1.10421
rclavicle -4.47266e-016 -1.18277e-014
rhumerus -28.0137 0.73025 -78.8324
rradius 47.3475
rwrist 5.93842
rhand -14.568 -35.8836
rfingers 7.12502
rthumb 11.5814 -65.5436
lclavicle -4.47266e-016 -1.18277e-014
lhumerus -21.0007 -21.4923 69.3897
lradius 38.5703
lwrist -6.50657
lhand -34.8929 -25.429
lfingers 7.12502
lthumb -8.04145 4.39802
rfemur -14.5659 0.895671 26.1058
rtibia 41.6497
rfoot -23.6513 1.38915
rtoes -25.9888
lfemur -47.9432 4.60047 -11.6867
ltibia 68.8362
lfoot -19.7802 5.53621
ltoes -56.5314
